HIERARCHY
ROOT Hips
{
 OFFSET 0.000000 0.000000 0.000000
 CHANNELS 6 Xposition Yposition Zposition Yrotation Xrotation Zrotation
 JOINT Chest
 {
  OFFSET 0.000000 14.374500 -0.011500
  CHANNELS 3 Yrotation Xrotation Zrotation
  JOINT Chest2
  {
   OFFSET 0.000000 9.203400 0.023400
   CHANNELS 3 Yrotation Xrotation Zrotation
   JOINT Chest3
   {
    OFFSET 0.000000 9.162700 0.000000
    CHANNELS 3 Yrotation Xrotation Zrotation
    JOINT Chest4
    {
     OFFSET 0.000000 9.153300 0.000000
     CHANNELS 3 Yrotation Xrotation Zrotation
     JOINT Neck
     {
      OFFSET 0.000000 13.353600 0.000000
      CHANNELS 3 Yrotation Xrotation Zrotation
      JOINT Head
      {
       OFFSET 0.000000 8.573800 0.049400
       CHANNELS 3 Yrotation Xrotation Zrotation
       End Site
       {
        OFFSET 0.000000 16.219200 0.026100
       }
      }
     }
     JOINT RightCollar
     {
      OFFSET -2.497100 8.876100 0.000000
      CHANNELS 3 Yrotation Xrotation Zrotation
      JOINT RightShoulder
      {
       OFFSET -12.289200 0.000000 0.000000
       CHANNELS 3 Yrotation Xrotation Zrotation
       JOINT RightElbow
       {
        OFFSET 0.000000 -28.194900 0.000000
        CHANNELS 3 Yrotation Xrotation Zrotation
        JOINT RightWrist
        {
         OFFSET 0.000000 -23.009700 0.007900
         CHANNELS 3 Yrotation Xrotation Zrotation
         End Site
         {
          OFFSET 0.000000 -17.151500 0.000000
         }
        }
       }
      }
     }
     JOINT LeftCollar
     {
      OFFSET 2.497100 8.876100 0.000000
      CHANNELS 3 Yrotation Xrotation Zrotation
      JOINT LeftShoulder
      {
       OFFSET 12.289200 0.000000 0.000000
       CHANNELS 3 Yrotation Xrotation Zrotation
       JOINT LeftElbow
       {
        OFFSET 0.000000 -28.194900 0.000000
        CHANNELS 3 Yrotation Xrotation Zrotation
        JOINT LeftWrist
        {
         OFFSET 0.000000 -23.009700 0.007900
         CHANNELS 3 Yrotation Xrotation Zrotation
         End Site
         {
          OFFSET 0.000000 -17.151500 0.000000
         }
        }
       }
      }
     }
    }
   }
  }
 }
 JOINT RightHip
 {
  OFFSET -11.777600 0.056700 0.005700
  CHANNELS 3 Yrotation Xrotation Zrotation
  JOINT RightKnee
  {
   OFFSET 0.000000 -39.966000 -0.004200
   CHANNELS 3 Yrotation Xrotation Zrotation
   JOINT RightAnkle
   {
    OFFSET 0.000000 -41.981900 0.027400
    CHANNELS 3 Yrotation Xrotation Zrotation
    JOINT RightToe
    {
     OFFSET 0.000000 -9.910600 16.950100
     CHANNELS 3 Yrotation Xrotation Zrotation
     End Site
     {
      OFFSET 0.000000 -1.461000 6.191600
     }
    }
   }
  }
 }
 JOINT LeftHip
 {
  OFFSET 11.777600 0.056700 0.005700
  CHANNELS 3 Yrotation Xrotation Zrotation
  JOINT LeftKnee
  {
   OFFSET 0.000000 -39.966000 -0.004200
   CHANNELS 3 Yrotation Xrotation Zrotation
   JOINT LeftAnkle
   {
    OFFSET 0.000000 -41.981900 0.027400
    CHANNELS 3 Yrotation Xrotation Zrotation
    JOINT LeftToe
    {
     OFFSET 0.000000 -9.910600 16.950100
     CHANNELS 3 Yrotation Xrotation Zrotation
     End Site
     {
      OFFSET 0.000000 -1.461000 6.191600
     }
    }
   }
  }
 }
}
MOTION
Frames: 12
Frame Time: 0.008333
0.000000 91.618700 0.000000 0.000000 -5.767877 0.000000 0.000000 11.653817 0.000000 0.000000 -5.885947 0.000000 0.000000 -0.000000 0.000000 0.000000 -0.000000 0.000000 0.000000 12.528835 0.000000 0.000000 0.711642 0.000000 0.000000 -0.000000 0.000000 0.000000 0.000000 -90.000000 0.000000 -2.309062 0.000000 0.000000 2.309062 0.000000 0.000000 -0.000000 0.000000 0.000000 -0.000000 90.000000 0.000000 -2.309062 0.000000 0.000000 2.309062 0.000000 0.000000 8.520406 0.000000 0.000000 1.905762 0.000000 -0.000000 -4.658285 0.000000 0.000000 -0.000000 0.000000 0.000000 8.520406 0.000000 0.000000 1.905762 0.000000 -0.000000 -4.658285 0.000000 0.000000 -0.000000 0.000000
5.356795 152.696412 21.219709 172.337585 -46.661115 -1.881132 3.932250 28.837921 3.422064 0.557401 5.394408 0.516688 0.898437 8.454458 0.835998 2.880251 23.139958 2.724102 -0.898292 12.918522 -1.223440 -0.660041 -12.136561 -1.061417 3.327213 -0.489747 0.813704 13.438853 -22.911202 -14.270669 -11.921821 -67.236895 34.762613 17.336902 20.269439 -25.721526 -11.897083 -3.895401 -1.326030 -3.712000 -23.105392 6.144557 16.585355 -48.547282 -40.024231 -15.927762 5.477811 36.128065 5.210504 -31.131862 0.008893 -71.255643 87.115003 -72.875418 2.340040 -24.047161 8.523357 0.063825 -0.190507 0.049106 6.127263 -18.402921 0.682816 148.928224 68.588729 161.651472 0.469280 -21.213113 -8.603748 0.103261 -5.712477 -0.579559
4.998939 145.649025 22.324094 172.441031 -46.635937 -2.039929 3.904214 28.807834 3.513981 0.557497 5.393894 0.516542 0.899203 8.454359 0.836482 2.878607 23.135302 2.723712 -0.899199 12.920257 -1.220123 -0.663407 -12.138258 -1.060891 3.331963 -0.486532 0.809072 13.433050 -22.909640 -14.260952 -11.888083 -67.232873 34.735383 17.335744 20.270632 -25.725201 -11.899870 -3.894560 -1.321590 -3.703262 -23.096365 6.134781 16.580433 -48.551837 -40.018811 -15.934448 5.483064 36.125575 5.092168 -31.191362 0.104978 -72.022946 87.125886 -73.638528 2.360516 -24.123796 8.527739 0.032115 -0.120696 0.018771 6.028237 -18.418982 0.772494 148.903462 68.621221 161.623613 0.504411 -21.155518 -8.590335 0.037282 0.075968 0.021799
4.703734 139.845365 23.233597 172.520174 -46.615317 -2.164328 3.882439 28.782458 3.585697 0.557904 5.393439 0.516223 0.901358 8.456309 0.838045 2.878179 23.131905 2.720832 -0.901717 12.918629 -1.217088 -0.668484 -12.140150 -1.055579 3.335261 -0.490338 0.809911 13.429214 -22.903170 -14.253933 -11.876317 -67.231370 34.725845 17.336684 20.273195 -25.727509 -11.900914 -3.895262 -1.320784 -3.701130 -23.091466 6.135112 16.564912 -48.548075 -40.009639 -15.929934 5.478431 36.133548 5.000005 -31.242177 0.183137 -72.703426 87.132544 -74.317864 2.377811 -24.186226 8.532564 0.013253 -0.069069 0.007746 5.951949 -18.433240 0.846691 148.894015 68.645595 161.612287 0.523677 -21.106299 -8.580691 0.013779 0.042533 0.008058
4.486575 135.655166 23.888598 172.559093 -46.608641 -2.224401 3.871257 28.772124 3.618885 0.558003 5.394380 0.516990 0.900040 8.455410 0.836209 2.883021 23.128253 2.720169 -0.908148 12.915716 -1.212139 -0.668334 -12.136819 -1.051407 3.335580 -0.492872 0.812235 13.426157 -22.895746 -14.248668 -11.871332 -67.230469 34.722092 17.337403 20.276004 -25.728679 -11.903177 -3.892200 -1.317885 -3.700133 -23.089947 6.134442 16.557231 -48.545643 -40.000584 -15.929786 5.475943 36.134560 4.959381 -31.268623 0.221681 -73.198121 87.133556 -74.813131 2.384319 -24.217756 8.539067 0.007053 -0.041195 0.004123 5.916021 -18.432767 0.882686 148.890945 68.664872 161.610215 0.530889 -21.076896 -8.580459 0.009599 0.023331 0.005613
4.350771 133.008424 24.303005 172.590044 -46.602207 -2.272911 3.865498 28.763158 3.646937 0.555850 5.393685 0.517979 0.903175 8.447385 0.831857 2.885425 23.132432 2.723462 -0.909989 12.919762 -1.207514 -0.672895 -12.140283 -1.044243 3.333651 -0.491242 0.815386 13.427490 -22.892565 -14.245753 -11.864640 -67.228747 34.718794 17.346903 20.290360 -25.736772 -11.910057 -3.889593 -1.312261 -3.690538 -23.090617 6.129437 16.546159 -48.541962 -39.989256 -15.929808 5.472869 36.132044 4.925459 -31.291409 0.251126 -73.587135 87.136249 -75.199466 2.386575 -24.243513 8.540852 0.001899 -0.016495 0.001110 5.888754 -18.430447 0.910446 148.886833 68.683178 161.609997 0.539366 -21.057809 -8.583940 0.003414 0.008728 0.001996
4.274309 131.552961 24.530610 172.599778 -46.600216 -2.287488 3.864267 28.760508 3.655007 0.559558 5.390165 0.514768 0.900880 8.448311 0.834337 2.885611 23.133084 2.725072 -0.910985 12.915263 -1.206022 -0.676986 -12.137119 -1.035842 3.332636 -0.491937 0.815334 13.429114 -22.886954 -14.247754 -11.867117 -67.228895 34.721171 17.350598 20.292254 -25.736634 -11.915655 -3.895045 -1.308691 -3.678580 -23.089984 6.122663 16.529226 -48.537331 -39.976329 -15.929007 5.470966 36.131849 4.914731 -31.299633 0.258776 -73.679841 87.141113 -75.290195 2.385985 -24.244817 8.542147 0.002197 -0.008783 0.001285 5.880464 -18.427768 0.916929 148.883154 68.693275 161.607723 0.542319 -21.049322 -8.585238 0.002604 0.004017 0.001523
4.237375 130.859486 24.639558 172.605157 -46.597088 -2.293672 3.862824 28.757037 3.656693 0.559121 5.390011 0.515364 0.900964 8.447923 0.834316 2.887120 23.129283 2.722022 -0.913356 12.912990 -1.197105 -0.677430 -12.131387 -1.034286 3.338835 -0.491663 0.807752 13.420107 -22.883052 -14.236087 -11.848000 -67.222102 34.709643 17.345350 20.284940 -25.749481 -11.918387 -3.892614 -1.304283 -3.675387 -23.090664 6.119630 16.517485 -48.535972 -39.966299 -15.924617 5.468341 36.132419 4.913222 -31.307814 0.257966 -73.739478 87.146432 -75.347299 2.379941 -24.244917 8.542976 0.002015 -0.007731 0.001178 5.877109 -18.428061 0.918314 148.884400 68.700590 161.609363 0.543724 -21.045161 -8.584990 0.002386 0.002160 0.001395
4.222090 130.575680 24.684588 172.607386 -46.595097 -2.296325 3.865305 28.752302 3.658714 0.557644 5.390171 0.515542 0.900903 8.446656 0.834028 2.887470 23.127787 2.722011 -0.915457 12.915188 -1.192301 -0.676678 -12.128593 -1.035186 3.342036 -0.488611 0.804364 13.413928 -22.883432 -14.229627 -11.843302 -67.218455 34.709745 17.345889 20.285166 -25.754748 -11.921487 -3.890011 -1.302259 -3.671823 -23.090845 6.116784 16.509094 -48.534086 -39.958290 -15.924094 5.467922 36.131502 4.912168 -31.310896 0.255294 -73.698010 87.146533 -75.304025 2.383666 -24.241601 8.541931 0.002087 -0.007387 0.001220 5.875908 -18.428658 0.919334 148.891779 68.704816 161.615001 0.545702 -21.043845 -8.583826 0.001519 0.001554 0.000888
4.216332 130.476836 24.700750 172.612881 -46.593656 -2.299769 3.861227 28.750057 3.658078 0.558020 5.385372 0.514990 0.900352 8.444235 0.833895 2.885991 23.125384 2.721333 -0.915659 12.922482 -1.188783 -0.676655 -12.126633 -1.031708 3.344123 -0.478878 0.802536 13.413642 -22.883823 -14.225131 -11.841906 -67.216834 34.707693 17.350922 20.290307 -25.758791 -11.918517 -3.894778 -1.299884 -3.660384 -23.083468 6.106096 16.490451 -48.527237 -39.947500 -15.919025 5.463058 36.133114 4.910058 -31.311514 0.249389 -73.604976 87.151624 -75.211666 2.388783 -24.237094 8.540396 0.002688 -0.007512 0.001571 5.873112 -18.429072 0.919074 148.899722 68.706935 161.619949 0.546389 -21.044760 -8.578621 0.000271 0.002870 0.000158
4.214433 130.447828 24.706119 172.610831 -46.592490 -2.298107 3.861153 28.747180 3.657320 0.558597 5.382551 0.513599 0.900034 8.444504 0.834342 2.886938 23.123661 2.720122 -0.916512 12.925647 -1.184820 -0.680152 -12.124251 -1.027978 3.344934 -0.473539 0.801965 13.415258 -22.885084 -14.220574 -11.841345 -67.215136 34.702649 17.358880 20.304239 -25.770271 -11.915223 -3.895827 -1.296143 -3.654287 -23.079802 6.097661 16.477583 -48.523001 -39.941431 -15.917460 5.459174 36.140608 4.912597 -31.312421 0.247389 -73.528753 87.150432 -75.133869 2.381398 -24.227819 8.539979 0.001493 -0.007121 0.000873 5.877348 -18.433558 0.915048 148.900288 68.703585 161.621361 0.549211 -21.040876 -8.576100 -0.001930 0.000603 -0.001129
4.214720 130.441970 24.707017 172.612552 -46.598409 -2.302467 3.860956 28.748071 3.659700 0.561231 5.383695 0.513317 0.898228 8.446775 0.835583 2.890746 23.120179 2.719300 -0.919757 12.928764 -1.181322 -0.681795 -12.122065 -1.021587 3.345437 -0.470857 0.801900 13.412602 -22.886316 -14.215363 -11.835617 -67.209359 34.696288 17.364646 20.304727 -25.772310 -11.917400 -3.894188 -1.292437 -3.649046 -23.079327 6.092562 16.470686 -48.517501 -39.941466 -15.925060 5.460087 36.142379 4.910727 -31.307528 0.250342 -73.514499 87.140507 -75.126948 2.401603 -24.205436 8.545268 0.000557 -0.004522 0.000326 5.876501 -18.427523 0.918345 148.899929 68.703646 161.622558 0.551172 -21.039267 -8.575515 -0.002737 -0.000476 -0.001600
